<svg width="172" height="48" viewBox="0 0 172 48" fill="none" xmlns="http://www.w3.org/2000/svg">
<path d="M46 17.5077C45.9998 23.157 43.8262 28.5897 39.9297 32.6802C36.0332 36.7707 30.7125 39.2054 25.0698 39.4799C25.0707 39.4716 25.0707 39.4632 25.0698 39.4549C25.239 38.6436 25.4383 37.865 25.6677 37.1191C25.927 36.2653 26.2299 35.4253 26.5752 34.6025C30.5316 25.1708 38.6868 21.4854 39.5212 21.1278C30.8835 24.1807 26.5309 30.2058 24.4047 34.7102C24.2912 34.9428 24.1893 35.1697 24.0913 35.3927C24.0913 35.408 24.0759 35.4253 24.0702 35.4388C23.9894 35.6311 23.9144 35.8022 23.8414 35.979C23.7683 36.1559 23.6933 36.3462 23.6222 36.5192C23.5511 36.6923 23.4857 36.8807 23.43 37.0633C23.4165 37.1037 23.4011 37.1421 23.3896 37.1825C23.1202 37.9234 22.8905 38.678 22.7013 39.4433C22.7002 39.451 22.7002 39.4588 22.7013 39.4664C22.677 39.4682 22.6526 39.4682 22.6283 39.4664C21.9147 39.4246 21.2037 39.3463 20.4982 39.2319C20.1137 39.1704 19.7292 39.1011 19.36 39.0166C19.3592 39.0076 19.3592 38.9986 19.36 38.9896C19.3716 38.9262 19.387 38.8589 19.4004 38.7878V38.7455C19.4235 38.6205 19.4523 38.4936 19.4869 38.361C19.5042 38.2764 19.5254 38.1918 19.5446 38.1053C19.585 37.9303 19.633 37.7458 19.6849 37.5478C19.7369 37.3498 19.7888 37.1498 19.8503 36.9345L19.8945 36.7769C20.0868 36.1001 20.3348 35.3388 20.6404 34.5198C20.7039 34.3487 20.7673 34.1738 20.8327 34.0008C21.0903 33.3318 21.3902 32.632 21.7362 31.9072C22.3186 30.6792 22.9827 29.4916 23.7241 28.3525C23.9407 28.0167 24.1714 27.6796 24.4162 27.3413C24.661 27.0029 24.9 26.6825 25.1333 26.38C25.3909 26.0455 25.6639 25.7148 25.9484 25.3861C25.9984 25.3246 26.0503 25.265 26.1041 25.2035C26.158 25.1419 26.2291 25.0612 26.2964 24.992C26.331 24.9516 26.3656 24.9132 26.4002 24.8786C26.4069 24.866 26.416 24.8549 26.4271 24.8459C26.5232 24.7382 26.6194 24.6306 26.7193 24.5267C26.8597 24.3729 27.0039 24.2211 27.1538 24.073C27.3038 23.925 27.4499 23.7712 27.6037 23.6232C27.696 23.5309 27.7959 23.4309 27.8901 23.3502L28.1401 23.1137C28.3208 22.9484 28.5015 22.7869 28.688 22.6273C28.8052 22.5197 28.9283 22.4139 29.0532 22.312C29.1782 22.2101 29.3109 22.0948 29.4377 21.991C29.5646 21.8872 29.7011 21.7776 29.8376 21.6738C29.9741 21.57 30.0952 21.4815 30.2221 21.3796C30.349 21.2777 30.5182 21.1585 30.6681 21.049C30.7585 20.9817 30.8508 20.9182 30.945 20.8567L31.2122 20.676C31.2122 20.676 31.2122 20.676 31.2237 20.6645C31.5621 20.4376 31.9081 20.2146 32.2638 19.9993C32.3407 19.9531 32.4195 19.9032 32.4964 19.8589C32.979 19.5686 33.4827 19.2937 34.0017 19.0265C34.2113 18.9188 34.4228 18.8131 34.6381 18.7093C35.1418 18.4671 35.6608 18.2376 36.1953 18.021L36.2453 17.9999L36.2876 17.9826C36.3414 17.9614 36.3895 17.9384 36.4433 17.9211C37.0521 17.6814 37.6833 17.4558 38.3369 17.2444C38.8599 17.0771 39.3982 16.9214 39.9461 16.7772C40.2229 16.7041 40.5036 16.6349 40.7862 16.5715C40.9958 16.5215 41.2072 16.4754 41.4225 16.4292C41.6725 16.3754 41.9243 16.3235 42.1781 16.2773C42.4319 16.2312 42.6549 16.1908 42.8952 16.1485L42.9759 16.1351C43.1797 16.1005 43.3854 16.0678 43.593 16.039H43.6276L44.1294 15.9697H44.1736C44.4197 15.9371 44.6696 15.9082 44.9196 15.8794C45.1695 15.8506 45.4406 15.8236 45.702 15.8006H45.7924L45.9019 15.7871H45.9135C45.9135 15.8063 45.9135 15.8236 45.9135 15.8409C45.9442 16.2101 45.9615 16.5792 45.9731 16.9521C45.9961 17.1175 46 17.3116 46 17.5077Z" fill="white"/>
<path d="M22.9763 27.3855C22.9186 27.4663 22.8667 27.5508 22.811 27.6316C22.4752 28.1443 22.1624 28.6531 21.8728 29.158C21.859 29.1758 21.8474 29.1952 21.8382 29.2157C21.5383 29.7425 21.2601 30.2609 21.0038 30.771L20.9865 30.746C18.4392 27.1087 14.4174 23.3233 8.13274 21.1124C8.70949 21.3508 15.8785 24.4922 20.1348 32.5339L20.1618 32.5839C19.9349 33.1126 19.7311 33.6259 19.5485 34.1219C19.2294 34.9832 18.9717 35.7829 18.7795 36.4943C18.52 37.3921 18.345 38.1515 18.2335 38.7167C18.2326 38.7256 18.2326 38.7346 18.2335 38.7436C13.572 37.4763 9.45702 34.7104 6.52327 30.8727C3.58952 27.0349 2.00003 22.3384 2 17.5078C2 17.2521 2 16.9925 2.01538 16.7388H2.0769C2.82434 16.7253 3.57196 16.7516 4.3166 16.8176C5.7744 16.947 7.21722 17.2102 8.62682 17.6039C14.1501 19.1342 18.9698 22.4236 22.9763 27.3855Z" fill="white"/>
<path d="M30.6449 18.9072C28.4349 20.2931 26.4317 21.9843 24.6948 23.9307C24.3295 24.3382 23.9841 24.7471 23.6586 25.1572C23.6586 25.1572 24.2795 19.4839 23.4433 15.1257C23.4433 15.1257 22.1706 19.4839 22.3128 23.6384C21.2023 22.4401 20.0031 21.3271 18.7255 20.3087C17.6356 19.4394 16.4864 18.6474 15.2861 17.9383C16.32 13.0331 18.9985 8.62834 22.878 5.45361C27.0191 8.84256 29.7809 13.6264 30.6449 18.9072Z" fill="#74B74E"/>
<path d="M58.636 35V18.396H52.28V14.84H68.8V18.396H62.444V35H58.636ZM75.6117 35.42C74.0903 35.42 72.7557 35.0793 71.6077 34.398C70.4597 33.7167 69.5637 32.7787 68.9197 31.584C68.285 30.38 67.9677 28.9987 67.9677 27.44C67.9677 25.8627 68.2943 24.4767 68.9477 23.282C69.601 22.078 70.5017 21.14 71.6497 20.468C72.7977 19.796 74.1183 19.46 75.6117 19.46C77.133 19.46 78.4677 19.8007 79.6157 20.482C80.773 21.1633 81.6737 22.106 82.3177 23.31C82.9617 24.5047 83.2837 25.8813 83.2837 27.44C83.2837 29.008 82.957 30.394 82.3037 31.598C81.6597 32.7927 80.759 33.7307 79.6017 34.412C78.4537 35.084 77.1237 35.42 75.6117 35.42ZM75.6117 31.864C76.8343 31.864 77.7443 31.4533 78.3417 30.632C78.9483 29.8013 79.2517 28.7373 79.2517 27.44C79.2517 26.096 78.9437 25.0227 78.3277 24.22C77.721 23.4173 76.8157 23.016 75.6117 23.016C74.781 23.016 74.0997 23.2027 73.5677 23.576C73.0357 23.9493 72.639 24.4673 72.3777 25.13C72.1257 25.7927 71.9997 26.5627 71.9997 27.44C71.9997 28.7933 72.303 29.8713 72.9097 30.674C73.5257 31.4673 74.4263 31.864 75.6117 31.864ZM86.3623 35V19.88H89.7223V23.576L89.3583 23.1C89.5543 22.5773 89.8157 22.1013 90.1423 21.672C90.469 21.2427 90.8703 20.888 91.3463 20.608C91.7103 20.384 92.107 20.2113 92.5363 20.09C92.9657 19.9593 93.409 19.88 93.8663 19.852C94.3237 19.8147 94.781 19.824 95.2383 19.88V23.436C94.8183 23.3053 94.3283 23.2633 93.7683 23.31C93.2177 23.3473 92.7183 23.4733 92.2703 23.688C91.8223 23.8933 91.4443 24.1687 91.1363 24.514C90.8283 24.85 90.595 25.2513 90.4363 25.718C90.2777 26.1753 90.1983 26.6933 90.1983 27.272V35H86.3623ZM103.823 42.14C102.964 42.14 102.147 42 101.373 41.72C100.598 41.4493 99.9025 41.0667 99.2865 40.572C98.6799 40.0867 98.1852 39.5173 97.8025 38.864L101.331 37.156C101.573 37.604 101.919 37.9447 102.367 38.178C102.824 38.4113 103.319 38.528 103.851 38.528C104.42 38.528 104.957 38.43 105.461 38.234C105.965 38.0473 106.366 37.7627 106.665 37.38C106.973 37.0067 107.117 36.54 107.099 35.98V31.584H107.575V19.88H110.907V36.036C110.907 36.4093 110.888 36.7593 110.851 37.086C110.823 37.422 110.767 37.7533 110.683 38.08C110.44 39.004 109.987 39.7647 109.325 40.362C108.671 40.9593 107.869 41.4027 106.917 41.692C105.965 41.9907 104.933 42.14 103.823 42.14ZM103.487 35.42C102.096 35.42 100.878 35.07 99.8325 34.37C98.7872 33.67 97.9705 32.718 97.3825 31.514C96.8039 30.31 96.5145 28.952 96.5145 27.44C96.5145 25.9 96.8085 24.5327 97.3965 23.338C97.9939 22.134 98.8292 21.1867 99.9025 20.496C100.976 19.8053 102.236 19.46 103.683 19.46C105.12 19.46 106.329 19.81 107.309 20.51C108.289 21.21 109.031 22.162 109.535 23.366C110.039 24.57 110.291 25.928 110.291 27.44C110.291 28.952 110.034 30.31 109.521 31.514C109.017 32.718 108.261 33.67 107.253 34.37C106.245 35.07 104.989 35.42 103.487 35.42ZM104.103 32.032C104.952 32.032 105.629 31.8407 106.133 31.458C106.646 31.0753 107.015 30.5387 107.239 29.848C107.463 29.1573 107.575 28.3547 107.575 27.44C107.575 26.5253 107.463 25.7227 107.239 25.032C107.015 24.3413 106.655 23.8047 106.161 23.422C105.675 23.0393 105.036 22.848 104.243 22.848C103.393 22.848 102.693 23.058 102.143 23.478C101.601 23.8887 101.2 24.444 100.939 25.144C100.677 25.8347 100.547 26.6 100.547 27.44C100.547 28.2893 100.673 29.064 100.925 29.764C101.177 30.4547 101.564 31.0053 102.087 31.416C102.609 31.8267 103.281 32.032 104.103 32.032ZM119.027 35.42C117.945 35.42 117.025 35.2147 116.269 34.804C115.523 34.384 114.953 33.8287 114.561 33.138C114.179 32.438 113.987 31.668 113.987 30.828C113.987 30.128 114.095 29.4887 114.309 28.91C114.524 28.3313 114.869 27.8227 115.345 27.384C115.831 26.936 116.479 26.5627 117.291 26.264C117.851 26.0587 118.519 25.8767 119.293 25.718C120.068 25.5593 120.945 25.41 121.925 25.27C122.905 25.1207 123.983 24.9573 125.159 24.78L123.787 25.536C123.787 24.64 123.573 23.982 123.143 23.562C122.714 23.142 121.995 22.932 120.987 22.932C120.427 22.932 119.844 23.0673 119.237 23.338C118.631 23.6087 118.206 24.0893 117.963 24.78L114.519 23.688C114.902 22.4373 115.621 21.42 116.675 20.636C117.73 19.852 119.167 19.46 120.987 19.46C122.322 19.46 123.507 19.6653 124.543 20.076C125.579 20.4867 126.363 21.196 126.895 22.204C127.194 22.764 127.371 23.324 127.427 23.884C127.483 24.444 127.511 25.0693 127.511 25.76V35H124.179V31.892L124.655 32.536C123.918 33.5533 123.12 34.2907 122.261 34.748C121.412 35.196 120.334 35.42 119.027 35.42ZM119.839 32.424C120.539 32.424 121.127 32.3027 121.603 32.06C122.089 31.808 122.471 31.5233 122.751 31.206C123.041 30.8887 123.237 30.6227 123.339 30.408C123.535 29.9973 123.647 29.5213 123.675 28.98C123.713 28.4293 123.731 27.972 123.731 27.608L124.851 27.888C123.722 28.0747 122.807 28.2333 122.107 28.364C121.407 28.4853 120.843 28.5973 120.413 28.7C119.984 28.8027 119.606 28.9147 119.279 29.036C118.906 29.1853 118.603 29.3487 118.369 29.526C118.145 29.694 117.977 29.8807 117.865 30.086C117.763 30.2913 117.711 30.52 117.711 30.772C117.711 31.1173 117.795 31.416 117.963 31.668C118.141 31.9107 118.388 32.0973 118.705 32.228C119.023 32.3587 119.401 32.424 119.839 32.424ZM141.455 35V27.86C141.455 27.5147 141.437 27.076 141.399 26.544C141.362 26.0027 141.245 25.4613 141.049 24.92C140.853 24.3787 140.531 23.926 140.083 23.562C139.645 23.198 139.019 23.016 138.207 23.016C137.881 23.016 137.531 23.0673 137.157 23.17C136.784 23.2727 136.434 23.4733 136.107 23.772C135.781 24.0613 135.51 24.4907 135.295 25.06C135.09 25.6293 134.987 26.3853 134.987 27.328L132.803 26.292C132.803 25.0973 133.046 23.9773 133.531 22.932C134.017 21.8867 134.745 21.042 135.715 20.398C136.695 19.754 137.927 19.432 139.411 19.432C140.597 19.432 141.563 19.6327 142.309 20.034C143.056 20.4353 143.635 20.944 144.045 21.56C144.465 22.176 144.764 22.82 144.941 23.492C145.119 24.1547 145.226 24.7613 145.263 25.312C145.301 25.8627 145.319 26.264 145.319 26.516V35H141.455ZM131.123 35V19.88H134.511V24.892H134.987V35H131.123ZM149.232 17.78V14.42H153.04V17.78H149.232ZM149.232 35V19.88H153.04V35H149.232ZM163.901 35.42C162.333 35.42 160.989 35.07 159.869 34.37C158.749 33.67 157.891 32.718 157.293 31.514C156.696 30.31 156.397 28.952 156.397 27.44C156.397 25.9093 156.705 24.542 157.321 23.338C157.947 22.134 158.824 21.1867 159.953 20.496C161.083 19.8053 162.417 19.46 163.957 19.46C165.74 19.46 167.233 19.9127 168.437 20.818C169.651 21.714 170.425 22.9413 170.761 24.5L166.953 25.508C166.729 24.724 166.337 24.1127 165.777 23.674C165.227 23.2353 164.601 23.016 163.901 23.016C163.099 23.016 162.441 23.212 161.927 23.604C161.414 23.9867 161.036 24.514 160.793 25.186C160.551 25.8487 160.429 26.6 160.429 27.44C160.429 28.756 160.719 29.8247 161.297 30.646C161.885 31.458 162.753 31.864 163.901 31.864C164.76 31.864 165.413 31.668 165.861 31.276C166.309 30.884 166.645 30.324 166.869 29.596L170.761 30.408C170.332 32.0133 169.52 33.25 168.325 34.118C167.131 34.986 165.656 35.42 163.901 35.42Z" fill="white"/>
</svg>
