<svg width="20" height="20" viewBox="0 0 20 20" fill="none" xmlns="http://www.w3.org/2000/svg">
<g clip-path="url(#clip0_482_9274)">
<path d="M4.1651 5.99941C4.1651 5.51318 4.35825 5.04686 4.70207 4.70305C5.04589 4.35923 5.5122 4.16607 5.99843 4.16607H6.83176C7.31585 4.1658 7.78017 3.97408 8.12343 3.63274L8.70676 3.04941C8.87714 2.87807 9.0797 2.74211 9.3028 2.64933C9.5259 2.55655 9.76514 2.50879 10.0068 2.50879C10.2484 2.50879 10.4876 2.55655 10.7107 2.64933C10.9338 2.74211 11.1364 2.87807 11.3068 3.04941L11.8901 3.63274C12.2334 3.97441 12.6984 4.16607 13.1818 4.16607H14.0151C14.5013 4.16607 14.9676 4.35923 15.3115 4.70305C15.6553 5.04686 15.8484 5.51318 15.8484 5.99941V6.83274C15.8484 7.31607 16.0401 7.78107 16.3818 8.12441L16.9651 8.70774C17.1364 8.87811 17.2724 9.08068 17.3652 9.30378C17.458 9.52688 17.5057 9.76612 17.5057 10.0077C17.5057 10.2494 17.458 10.4886 17.3652 10.7117C17.2724 10.9348 17.1364 11.1374 16.9651 11.3077L16.3818 11.8911C16.0404 12.2343 15.8487 12.6987 15.8484 13.1827V14.0161C15.8484 14.5023 15.6553 14.9686 15.3115 15.3124C14.9676 15.6563 14.5013 15.8494 14.0151 15.8494H13.1818C12.6977 15.8497 12.2334 16.0414 11.8901 16.3827L11.3068 16.9661C11.1364 17.1374 10.9338 17.2734 10.7107 17.3662C10.4876 17.4589 10.2484 17.5067 10.0068 17.5067C9.76514 17.5067 9.5259 17.4589 9.3028 17.3662C9.0797 17.2734 8.87714 17.1374 8.70676 16.9661L8.12343 16.3827C7.78017 16.0414 7.31585 15.8497 6.83176 15.8494H5.99843C5.5122 15.8494 5.04589 15.6563 4.70207 15.3124C4.35825 14.9686 4.1651 14.5023 4.1651 14.0161V13.1827C4.16482 12.6987 3.9731 12.2343 3.63176 11.8911L3.04843 11.3077C2.8771 11.1374 2.74113 10.9348 2.64835 10.7117C2.55557 10.4886 2.50781 10.2494 2.50781 10.0077C2.50781 9.76612 2.55557 9.52688 2.64835 9.30378C2.74113 9.08068 2.8771 8.87811 3.04843 8.70774L3.63176 8.12441C3.9731 7.78115 4.16482 7.31682 4.1651 6.83274V5.99941Z" stroke="#74B74E" stroke-width="1.5" stroke-linecap="round" stroke-linejoin="round"/>
<path d="M7.5 9.9998L9.16667 11.6665L12.5 8.33313" stroke="#74B74E" stroke-width="1.5" stroke-linecap="round" stroke-linejoin="round"/>
</g>
<defs>
<clipPath id="clip0_482_9274">
<rect width="20" height="20" fill="white"/>
</clipPath>
</defs>
</svg>
